<?xml version="1.0" encoding="utf-8"?>
<!-- Generator: Adobe Illustrator 23.0.1, SVG Export Plug-In . SVG Version: 6.00 Build 0)  -->
<svg version="1.1" xmlns="http://www.w3.org/2000/svg" xmlns:xlink="http://www.w3.org/1999/xlink" x="0px" y="0px"
	 viewBox="0 0 1920 1080" style="enable-background:new 0 0 1920 1080;" xml:space="preserve">
<style type="text/css">
	.st0{fill:#6C6CDD;}
	.st1{fill:#668DF9;}
	.st2{fill:#FFFFFF;stroke:#FFFFFF;stroke-miterlimit:10;}
</style>
<g id="Layer_1">
	<g>
		<circle class="st0" cx="1030.22" cy="556" r="274.5"/>
		<path class="st0" d="M755.77,555.19c0,0.15,0,0.29-0.02,0.44h274.2C915.65,418.84,765.43,546.72,755.77,555.19z"/>
		<path class="st0" d="M1029.95,555.63c118.14,141.4,274.68,0,274.68,0H1029.95z"/>
	</g>
</g>
<g id="Layer_2">
	<g>
		<path class="st1" d="M756.17,558.85c0,0,158.91-141.19,274.95,0"/>
		<path class="st1" d="M1259.87,559.25c-17.99-0.62-36-0.2-53.98,0.49c-36.3,1.4-72.61,3.87-108.93,1.66
			c-0.97-0.06-1.78-0.34-2.46-0.77c-4.63-0.8-9.24-0.02-13.9,0.42c-4.82,0.46-9.51-0.02-14.32-0.35
			c-5.38-0.36-10.77-0.61-16.16-1.02c-4.6-0.34-9.65-1.46-14.21-0.49c-2.99,0.64-5.16-1.21-5.94-3.47H759.91
			c-0.09,0.1-0.17,0.2-0.26,0.29c-0.91,0.91-2.25,1.46-3.54,1.46h-0.2c-0.07,0-0.14-0.02-0.21-0.02
			c1.27,150.16,125.05,272.74,274.48,272.76c148.46,0.02,271.81-120.95,274.51-270.11c-0.08,0.03-1.03,0.12-2.04,0.21
			c-1.24,0.11-2.6,0.21-2.66,0.2C1286.82,558.2,1273.24,559.7,1259.87,559.25z"/>
		<path class="st0" d="M1304.72,556c-55.29,54.83-130.29,77.5-195.25,56.67c-41.1-13.18-67.32-40.3-80.57-56.67l-0.52-0.42"/>
	</g>
	<g>
		<path class="st2" d="M1004,560.15c-0.85,1.81-0.35,4.29-0.35,4.29c0.23-1.55,1.83-3.62,1.83-3.62c-1.21,2.15,1.12,4.91,1.12,4.91
			c-2.15-3.88,1.32-3.68,1.32-3.68c5.59,2.12,4.7,4.42,4.7,4.42c2.03-1.77-2.41-4.57-2.41-4.57c2.29-0.15,8.82,2.64,8.82,2.64
			c0.08-1.56-6.2-3.79-6.2-3.79c4.32-1.92,8.3,0.46,8.3,0.46c-3.19-2.96-6.41-2.43-6.41-2.43c3.12,0.15,5.62-2.41,5.62-2.41
			c-2.99,1.26-6.14,1.28-6.14,1.28c31.13-13.49,39.16-23.28,39.16-23.28c15.54-8.76,50.5-45.53,50.5-45.53
			c-15.65,11.09-39.13,13.86-39.13,13.86c24.26-7.62,48.92-32.44,48.92-32.44c9.73-6.81,32.4-32.22,32.4-32.22
			c-29.17,10.49-32.67,6.26-32.67,6.26c7.1,1.4,32.66-9.41,32.66-9.41c13.34-6.49,36.15-44.18,36.15-44.18
			c-6.23,2.92-14.35,1.36-14.35,1.36c10.06-0.74,21.1-9.17,21.1-9.17c-8.11,0-9.44-1.52-9.44-1.52c5.79,1.45,11.42-1.04,11.42-1.04
			c10.22-9.87,7.79-19.16,7.79-19.16c-8.85-1.95-17.85-1.3-17.85-1.3c-3.69,0.19-11,8.18-11,8.18c0.36-3.87,4.84-7.33,4.84-7.33
			c-13.97,0.63-37.25,8.67-37.25,8.67c-6.07,0.33-15.66,24.18-15.66,24.18c0.18-5.99,5.13-23.78,5.13-23.78l-14.49,7.09
			c-59.31,28.68-91.1,84.81-92.16,86.47c0,0-12.75,20.72-15.94,42.19c0,0-8.15,33.85-8.66,43.54c0,0-1.69,1.82-3.03-5.02
			c0,0-0.75,6.86,3.5,8.59c0,0-3.74,0.45-6.11-3.25c0,0,2.01,4.86,5.1,5.18c0,0-4.2-1.02-6.44,3.15c0,0,1.66-1.65,6.87-1.51
			c0,0,2.18,0.8,0.02,2.61c0,0,1.64-0.39,1.94-2.45c0,0-0.17,1.25,0.3,1.34c0,0-0.43-0.56,0.22-1.08c0,0,0.9,2.24,0,3.32
			c0,0,1.85-1.72,2.24-2.87"/>
		<g>
			<g>
				<path class="st2" d="M941.33,699.79c0,0,2.18,6.05-7.03,14.52c0,0-11.67,12.55-14.58,19.8c0,0,1.65-18.66,9.71-32.39
					c0,0,3.87-2.88,4.59-7.08l1.26-1.65l8.71,3.32c0,0,0.5,2.04-0.68,2.47C942.15,699.21,943.05,697.42,941.33,699.79z"/>
				<path class="st2" d="M927.01,713.59c0,0,3.29,0.44,2.26-2.96c-0.04-0.09-0.09-0.29-0.06-0.54c0.03-0.27,0.16-0.45,0.22-0.53
					l3.58-5.8c0,0,1.82-2.47,1.46-2.96s-1.02-0.7-1.67,0.13c-1.58,2.98-3.16,5.95-4.74,8.93c-0.26,0.11-0.64,0.33-0.99,0.71
					c-0.69,0.78-0.74,1.7-0.74,1.98c0.02,0.13,0.07,0.4,0.27,0.67C926.74,713.41,926.91,713.53,927.01,713.59
					c-2.24,5.39-4.48,10.79-6.72,16.18"/>
				<path class="st2" d="M935.29,692.99c0,0-1.56-0.81-1.59-1.13c0,0,1.37-1.98,0.88-2.07l-0.74-0.4c0,0-0.16-1.64,1.24-1.62
					c0,0,1.77,1.16,1.95,0.47l0.54-0.98l-3.59-1.67c0,0-0.92-0.19-0.24-1.08l1.31-2.85c0,0,8.83-6.63,13.2-21.72
					c0,0,1.39-4.77,2.4-10.22l15.57,8.03c0,0-8.55,7.77-10.93,17.41c0,0-2.17,5.61-3.26,13.53l-1.4,3.73c0,0-0.29,1.25-1.46,0.43
					c-1.16-0.82-2.79-1.8-2.79-1.8l-0.95,1.19l1.92,1.45c0,0,0.18,1.48-1.29,1.78c0,0-0.96-0.64-1.22,0.09
					c-0.27,0.73-0.83,0.75-0.83,0.75"/>
				<line class="st2" x1="934.58" y1="689.78" x2="945.16" y2="695.22"/>
				<line class="st2" x1="936.9" y1="688.41" x2="945.42" y2="692.23"/>
				<path class="st2" d="M946.37,691.03c-0.26-0.01-8.8-3.77-8.8-3.77"/>
				<polyline class="st2" points="958.48,653.75 941.93,688.65 941.44,688.96 				"/>
				<path class="st2" d="M966.21,657.73c0,0-1.51-6.24,1.71-8.23c0,0,3.09-16.56,7.32-22.4c0,0,7.15-17.47,17.2-30.84l5.99-12.2
					c0,0-1.8-0.9,1.21-4.58c0,0,1.53-0.29,2.75-0.21l1.53-4l-7.85-3.56l-7.25-3.41l-1.84,3.9c0,0,3.05,4.43-1.14,6.37l-5.31,10.31
					c0,0,1.15,7.8-24.91,54.61c0,0,1.61,4.69-4.97,6.21"/>
				<path class="st2" d="M1002.46,574.61c0,0-0.63-2.28,1.2-2.94l-12.3-5.94c0,0,0.06,2.39-1.05,3.28"/>
			</g>
			<path class="st2" d="M1001.47,570.61c0.26-0.51,0.52-1.02,0.78-1.52c0.12-0.17,0.39-0.58,0.26-0.94c-0.03-0.09-0.1-0.2-0.65-0.58
				c-0.27-0.18-0.49-0.33-0.65-0.43c-1.72-0.86-3.43-1.73-5.15-2.59c-0.17-0.06-0.57-0.19-1-0.03c-0.09,0.03-0.37,0.15-0.77,0.73
				c-0.21,0.31-0.51,0.83-0.67,1.58"/>
		</g>
		<path class="st2" d="M997.13,564.74c0.94-2.17,1.88-4.35,2.82-6.52c0,0,38.35-124.18,158.77-177.41c0,0-87.21,34.41-154.72,179.35
			c-1.13,2.32-2.25,4.64-3.38,6.96"/>
	</g>
</g>
<g id="Layer_3">
	<line class="st0" x1="1300.02" y1="560.54" x2="1304.69" y2="560.13"/>
	<path class="st0" d="M1300.02,560.58"/>
	<path class="st1" d="M1299.99,560.58c1.58-1.47,3.16-2.94,4.74-4.41c-0.01,1.33-0.02,2.67-0.03,4
		C1303.13,560.3,1301.56,560.44,1299.99,560.58z"/>
</g>
</svg>
